<?xml version="1.0" encoding="UTF-8" standalone="no"?>
<!DOCTYPE svg PUBLIC "-//W3C//DTD SVG 1.1//EN" "http://www.w3.org/Graphics/SVG/1.1/DTD/svg11.dtd"><svg width="100%"
  height="100%" viewBox="0 0 2196 1506" version="1.1" xmlns="http://www.w3.org/2000/svg"
  xmlns:xlink="http://www.w3.org/1999/xlink" xml:space="preserve" xmlns:serif="http://www.serif.com/"
  style="fill-rule:evenodd;clip-rule:evenodd;stroke-linecap:round;stroke-linejoin:round;stroke-miterlimit:1.5;">
  <rect width="100%" height="100%" fill="white" /><text x="40.879px" y="120.728px"
    style="font-family:'ArialMT', 'Arial', sans-serif;font-size:44.712px;">Repo: Kabal Design System</text><text
    x="679.582px" y="231.797px" style="font-family:'ArialMT', 'Arial', sans-serif;font-size:44.712px;">build +
    release</text><text x="814.169px" y="556.741px"
    style="font-family:'Arial-ItalicMT', 'Arial', sans-serif;font-style:italic;font-size:32.049px;">KABAL_NPM_T<tspan
      x="1043.37px 1068.3px " y="556.741px 556.741px ">OK</tspan>EN</text>
  <g transform="matrix(0.516175,0,0,0.516175,1077.41,73.1212)"><text x="467.917px" y="1217.92px"
      style="font-family:'Arial-ItalicMT', 'Arial', sans-serif;font-style:italic;font-size:50px;">A<tspan
        x="500.364px 547.556px " y="1217.92px 1217.92px ">WS</tspan>_ACCESS_KEY_ID</text><text x="467.917px"
      y="1269.56px" style="font-family:'Arial-ItalicMT', 'Arial', sans-serif;font-style:italic;font-size:50px;">A<tspan
        x="500.364px 547.556px " y="1269.56px 1269.56px ">WS</tspan>_ACCESS_KEY_SECRET</text></g><text x="1753.12px"
    y="1087.87px" style="font-family:'ArialMT', 'Arial', sans-serif;font-size:44.712px;">A<tspan
      x="1781.28px 1823.48px " y="1087.87px 1087.87px ">WS</tspan> S3</text><text x="1625.19px" y="1236.46px"
    style="font-family:'ArialMT', 'Arial', sans-serif;font-size:44.712px;">/your-app-name/1.2.3/*</text><text
    x="577.015px" y="681.736px" style="font-family:'ArialMT', 'Arial', sans-serif;font-size:44.712px;">build</text><text
    x="1406.34px" y="797.252px"
    style="font-family:'ArialMT', 'Arial', sans-serif;font-size:44.712px;">release</text><text x="1794.21px"
    y="437.181px" style="font-family:'ArialMT', 'Arial', sans-serif;font-size:44.712px;">registry<tspan
      x="1937.48px 1949.9px " y="437.181px 437.181px ">.n</tspan>pmjs.org</text>
  <g transform="matrix(0.894244,0,0,0.894244,775.223,-865.922)"><text x="467.917px" y="1217.92px"
      style="font-family:'ArialMT', 'Arial', sans-serif;font-size:50px;">v1.0.0</text><text x="467.917px" y="1269.56px"
      style="font-family:'ArialMT', 'Arial', sans-serif;font-size:50px;">v1.0.1</text><text x="467.917px" y="1321.19px"
      style="font-family:'ArialMT', 'Arial', sans-serif;font-size:50px;">…</text></g><text x="44.022px" y="546.524px"
    style="font-family:'ArialMT', 'Arial', sans-serif;font-size:44.712px;">Repo: <tspan
      x="174.95px 200.668px 225.535px " y="546.524px 546.524px 546.524px ">You</tspan>r Kabal <tspan
      x="402.025px 431.848px " y="546.524px 546.524px ">Ap</tspan>p</text>
  <rect x="1.771" y="981.818" width="686.848" height="524.08" style="fill:#ccc;" /><text x="250.695px" y="1078.95px"
    style="font-family:'ArialMT', 'Arial', sans-serif;font-size:44.712px;">T<tspan x="276.348px 291.238px "
      y="1078.95px 1078.95px ">ri</tspan>gger</text><text x="249.364px" y="1173.1px"
    style="font-family:'ArialMT', 'Arial', sans-serif;font-size:44.712px;">GitHub <tspan x="398.477px 428.3px "
      y="1173.1px 1173.1px ">Ac</tspan>tion</text><text x="249.735px" y="1258.38px"
    style="font-family:'ArialMT', 'Arial', sans-serif;font-size:44.712px;">Secret</text><text x="248.337px"
    y="1343.12px" style="font-family:'ArialMT', 'Arial', sans-serif;font-size:44.712px;">NPM repository</text><text
    x="248.337px" y="1434.31px" style="font-family:'ArialMT', 'Arial', sans-serif;font-size:44.712px;">This
    project</text><text x="138.285px" y="714.837px"
    style="font-family:'ArialMT', 'Arial', sans-serif;font-size:44.712px;">new tag: v1.2.3</text><text x="141.778px"
    y="264.665px" style="font-family:'ArialMT', 'Arial', sans-serif;font-size:44.712px;">new tag: v1.0.1</text>
  <rect x="1.771" y="54.153" width="1700.44" height="839.609" style="fill:none;stroke:#000;stroke-width:3.54px;" /><text
    x="-0.609px" y="32.552px" style="font-family:'ArialMT', 'Arial', sans-serif;font-size:44.712px;">GitHub</text>
  <path
    d="M537.389,219.123c0,-18.864 -15.315,-34.179 -34.178,-34.179l-424.879,0c-18.864,0 -34.179,15.315 -34.179,34.179l0,68.357c0,18.864 15.315,34.179 34.179,34.179l424.879,0c18.863,0 34.178,-15.315 34.178,-34.179l0,-68.357Z"
    style="fill:none;stroke:#000;stroke-width:3.54px;" />
  <path
    d="M537.389,669.098c0,-18.863 -15.315,-34.178 -34.178,-34.178l-424.879,-0c-18.864,-0 -34.179,15.315 -34.179,34.178l0,68.358c0,18.864 15.315,34.178 34.179,34.178l424.879,0c18.863,0 34.178,-15.314 34.178,-34.178l0,-68.358Z"
    style="fill:none;stroke:#000;stroke-width:3.54px;" />
  <path
    d="M206.957,1052.5c0,-8.217 -6.671,-14.888 -14.887,-14.888l-89.044,0c-8.217,0 -14.888,6.671 -14.888,14.888l0,29.775c0,8.217 6.671,14.888 14.888,14.888l89.044,0c8.216,0 14.887,-6.671 14.887,-14.888l0,-29.775Z"
    style="fill:#fff;stroke:#000;stroke-width:3.54px;" />
  <path d="M1069.38,266.157l25.711,-12.855l-25.711,-12.856c6.428,6.428 6.428,19.283 0,25.711Z" />
  <path d="M1074.53,253.302l-537.138,-0" style="fill:none;stroke:#000;stroke-width:3.54px;" />
  <path d="M1159.12,279.899l20.384,-20.269l-28.445,-4.146c8.119,4.089 12.149,16.296 8.061,24.415Z" />
  <path d="M1159.97,266.079c-109.799,52.137 108.596,297.121 -78.866,437.198"
    style="fill:none;stroke:#000;stroke-width:3.54px;stroke-dasharray:17.71,17.71,0,0;" />
  <path d="M1812.6,509.796l25.845,-12.584l-25.574,-13.126c6.36,6.495 6.224,19.35 -0.271,25.71Z" />
  <path d="M1817.88,496.995c-180.204,0.335 -500.733,57.161 -714.02,246.693"
    style="fill:none;stroke:#000;stroke-width:3.54px;stroke-dasharray:17.71,17.71,0,0;" />
  <path d="M686.88,716.133l25.712,-12.856l-25.712,-12.856c6.428,6.428 6.428,19.284 0,25.712Z" />
  <path d="M692.023,703.277l-154.634,0" style="fill:none;stroke:#000;stroke-width:3.54px;" />
  <path d="M1803.24,909.13l18.836,21.716l6.071,-28.098c-4.631,7.822 -17.085,11.013 -24.907,6.382Z" />
  <path d="M1816.97,910.92c-77.974,-272.172 -383.537,-79.062 -587.872,-207.643"
    style="fill:none;stroke:#000;stroke-width:3.54px;" />
  <path d="M1466.7,346.868l-425.851,-0l106.463,-187.133l212.925,0l106.463,187.133Z"
    style="fill:none;stroke:#000;stroke-width:3.54px;" />
  <path d="M2178.9,645.883l-425.85,0l106.462,-187.132l212.925,-0l106.463,187.132Z"
    style="fill:none;stroke:#000;stroke-width:3.54px;" />
  <path d="M206.957,1356.9l-118.819,-0l29.705,-59.552l59.41,0l29.704,59.552Z"
    style="fill:#fff;stroke:#000;stroke-width:3.54px;" />
  <rect x="712.592" y="634.92" width="516.508" height="176.015"
    style="fill:none;stroke:#000;stroke-width:3.54px;stroke-dasharray:7.08,7.08,0,0;" />
  <path d="M181.246,1168.84l25.711,-12.855l-25.711,-12.856c6.428,6.428 6.428,19.283 0,25.711Z" />
  <path d="M186.388,1155.98l-98.25,-0" style="fill:none;stroke:#000;stroke-width:3.54px;" />
  <g transform="matrix(0.894244,0,0,0.894244,-240.02,-467.399)"><text x="1108.08px" y="1322.02px"
      style="font-family:'ArialMT', 'Arial', sans-serif;font-size:50px;">- fetch KDS dep</text><text x="1108.08px"
      y="1373.66px" style="font-family:'ArialMT', 'Arial', sans-serif;font-size:50px;">- fetch other deps</text></g>
  <g>
    <ellipse cx="1835.72" cy="965.123" rx="107.113" ry="34.277" style="fill:none;stroke:#000;stroke-width:3.54px;" />
    <path d="M1942.83,1145.51c0,18.918 -47.995,34.277 -107.112,34.277c-59.117,0 -107.113,-15.359 -107.113,-34.277"
      style="fill:none;stroke:#000;stroke-width:3.54px;" />
    <path d="M1728.61,1145.51l0,-180.386" style="fill:none;stroke:#000;stroke-width:3.54px;" />
    <path d="M1942.83,965.123l0,180.386" style="fill:none;stroke:#000;stroke-width:3.54px;" />
  </g>
  <path d="M1.771,473.957l1700.44,0" style="fill:none;stroke:#000;stroke-width:3.54px;" /><text x="96.021px"
    y="1253.85px" style="font-family:'Arial-ItalicMT', 'Arial', sans-serif;font-style:italic;font-size:32.049px;">T
    <tspan x="115.019px 139.948px " y="1253.85px 1253.85px ">OK</tspan>EN</text>
  <path
    d="M549.381,1281.6l45.833,0l0,-22.916l-45.833,-0l0,22.916Zm137.502,0l-0,-22.916l-45.835,-0l0,22.916l45.835,0Zm91.667,0l0,-22.916l-45.833,-0l0,22.916l45.833,0Zm45.835,0l45.835,0l-0,-22.916l-45.835,-0l0,22.916Zm137.501,0l0,-22.916l-45.832,-0l0,22.916l45.832,0Zm45.833,0l45.832,0l0,-22.916l-45.832,-0l-0,22.916Zm137.5,0l-0,-22.916l-45.834,-0l0,22.916l45.834,0Zm45.834,0l45.833,0l-0,-22.916l-45.833,-0l0,22.916Zm137.498,0l0,-22.916l-45.833,-0l0,22.916l45.833,0Zm45.834,0l45.833,0l0,-22.916l-45.833,-0l0,22.916Zm91.667,0l45.833,0l0,-22.916l-45.833,-0l0,22.916Zm137.499,0l-0,-22.916l-45.833,-0l0,22.916l45.833,0Zm91.666,0l-0,-22.916l-45.833,-0l-0,22.916l45.833,0Zm91.668,0l-0,-22.916l-45.834,-0l-0,22.916l45.834,0Zm91.666,0l0,-22.916l-45.833,-0l0,22.916l45.833,0Zm45.834,0l45.833,0l0,-22.916l-45.833,-0l-0,22.916Zm137.5,0l0,-22.916l-45.833,-0l-0,22.916l45.833,0Zm91.667,0l-0,-22.916l-45.834,-0l0,22.916l45.834,0Zm42.062,-49.605l-22.917,0l-0,45.834l22.917,-0l-0,-45.834Zm-1653.09,-35.206l0,45.833l22.917,0l0,-45.833l-22.917,-0Zm1653.09,-56.46l-22.917,0l-0,45.833l22.917,0l-0,-45.833Zm-1653.09,-35.207l0,45.833l22.917,0l0,-45.833l-22.917,0Zm1653.09,-56.46l-22.917,0l-0,45.834l22.917,-0l-0,-45.834Zm-1653.09,-35.206l0,45.833l22.917,-0l0,-45.833l-22.917,-0Zm1653.09,-56.461l-22.917,-0l-0,45.833l22.917,0l-0,-45.833Zm-1653.09,-35.206l0,45.834l22.917,-0l0,-45.834l-22.917,0Zm1653.09,-56.46l-22.917,-0l-0,45.833l22.917,0l-0,-45.833Zm-1653.09,-35.206l0,45.833l22.917,0l0,-45.833l-22.917,0Zm1653.09,-56.46l-22.917,-0l-0,45.833l22.917,-0l-0,-45.833Zm-1653.09,-35.206l0,45.833l22.917,-0l0,-45.833l-22.917,0Zm1653.09,-56.462l-22.917,0l-0,45.834l22.917,-0l-0,-45.834Zm-1653.09,-35.205l0,45.833l22.917,0l0,-45.833l-22.917,-0Zm1653.09,-56.461l-22.917,-0l-0,45.833l22.917,-0l-0,-45.833Zm-1653.09,-35.206l0,45.833l22.917,0l0,-45.833l-22.917,0Zm1653.09,-56.461l-22.917,0l-0,45.834l22.917,-0l-0,-45.834Zm-1653.09,-35.206l0,45.833l22.917,0l0,-45.833l-22.917,-0Zm1653.09,-56.461l-22.917,0l-0,45.834l22.917,-0l-0,-45.834Zm-1650,-32.117l-3.089,-0l0,42.744l22.917,-0l0,-42.744l-19.828,19.828l-0,-19.828Zm1466.66,-0l-45.833,-0l0,22.916l45.833,0l-0,-22.916Zm91.669,-0l-45.835,-0l0,22.916l45.835,0l-0,-22.916Zm-1466.66,-0l-45.833,-0l0,22.916l45.833,0l0,-22.916Zm183.333,-0l-45.833,-0l0,22.916l45.833,0l0,-22.916Zm91.667,-0l-45.833,-0l0,22.916l45.833,0l0,-22.916Zm275,-0l-45.833,-0l-0,22.916l45.833,0l-0,-22.916Zm91.666,-0l-45.833,-0l0,22.916l45.833,0l-0,-22.916Zm91.665,-0l-45.833,-0l0,22.916l45.833,0l0,-22.916Zm91.667,-0l-45.834,-0l0,22.916l45.834,0l-0,-22.916Zm458.333,-0l-45.833,-0l0,22.916l45.833,0l0,-22.916Zm275.002,-0l-45.835,-0l0,22.916l45.835,0l-0,-22.916Zm-1466.67,-0l-45.833,-0l-0,22.916l45.833,0l-0,-22.916Zm275,-0l-45.834,-0l-0,22.916l45.834,0l-0,-22.916Zm91.666,-0l-45.834,-0l0,22.916l45.834,0l0,-22.916Zm458.332,-0l-45.833,-0l-0,22.916l45.833,0l0,-22.916Zm183.335,-0l-45.835,-0l0,22.916l45.835,0l-0,-22.916Zm91.665,-0l-45.833,-0l0,22.916l45.833,0l0,-22.916Zm-183.334,-0l-45.833,-0l0,22.916l45.833,0l0,-22.916Z"
    style="fill:#d9a426;" />
  <path
    d="M207.991,1390.33l-118.819,0l-0,65.357l118.819,-0l0,-65.357Zm-22.917,22.917l0,19.523c0,-0 -72.986,-0 -72.986,-0c0,-0 0,-19.523 0,-19.523l72.986,-0Z"
    style="fill:#d9a426;" />
</svg>